# xmcd
# 
# Track frame offsets:
#     150
#     15200
#     28656
#     39342
#     54981
#     67319
#     78508
#     92976
#     104310
#     121358
#     142426
#     156847
#     176578
#     189981
#     205395
#     215179
#     233847
#     243158
#     255814
#     264477
#     278573
#     291955
#     312933
# 
# Disc length: 4356
# 
# Revision: 1
# Processed by: cddbd v1.5.2PL0 Copyright (c) Steve Scherf et al.
# Submitted via: fre:ac v1.0.31
# 
DISCID=4c110217
DTITLE=MTJ - Eesti kullafond CD3
DYEAR=2016
DGENRE=Country
TTITLE0=Tähepõllu Lemps
TTITLE1=Kaine armastus
TTITLE2=Rosaly
TTITLE3=Ajamets
TTITLE4=Jõulusegadus
TTITLE5=Kolm sõpra
TTITLE6=Aken Euroopasse
TTITLE7=Pilvevatimees
TTITLE8=Kurjavaimu lugu
TTITLE9=Asju olgu palju
TTITLE10=Foksterjer
TTITLE11=Teed kõik viivad mööda siit
TTITLE12=Margareeta
TTITLE13=Pulmaöö
TTITLE14=Johnny boy
TTITLE15=Majake jõekäärus
TTITLE16=Idamaine kohvik
TTITLE17=Sünnipäev
TTITLE18=Suvepäev
TTITLE19=Ai-ai-ai
TTITLE20=Kookossaar
TTITLE21=Üksik ratsamees
TTITLE22=Kui suudlen sind
EXTD=
EXTT0=
EXTT1=
EXTT2=
EXTT3=
EXTT4=
EXTT5=
EXTT6=
EXTT7=
EXTT8=
EXTT9=
EXTT10=
EXTT11=
EXTT12=
EXTT13=
EXTT14=
EXTT15=
EXTT16=
EXTT17=
EXTT18=
EXTT19=
EXTT20=
EXTT21=
EXTT22=
PLAYORDER=
